<?xml version="1.0" encoding="UTF-8"?>
<svg version="1.1" xmlns="http://www.w3.org/2000/svg" width="2000" height="2000">
<path d="M0 0 C660 0 1320 0 2000 0 C2000 660 2000 1320 2000 2000 C1340 2000 680 2000 0 2000 C0 1340 0 680 0 0 Z " fill="#111111" transform="translate(0,0)"/>
<path d="M0 0 C0.95326172 0.76763672 0.95326172 0.76763672 1.92578125 1.55078125 C9.88986285 8.66724441 15.35311965 19.7097858 16.18395488 30.35750761 C16.25805002 33.03392044 16.2689241 35.70353987 16.25726891 38.38096142 C16.26077498 39.40607512 16.26428105 40.43118883 16.26789337 41.48736659 C16.27720618 44.92654293 16.27228427 48.3655499 16.26742554 51.80473328 C16.27116185 54.29375354 16.27576329 56.78277263 16.28115618 59.27178985 C16.29084553 64.68568631 16.29430084 70.0995316 16.29224396 75.51343536 C16.28919268 83.56436706 16.29752078 91.61525921 16.30799321 99.66618321 C16.32733346 114.88267163 16.33296145 130.09914657 16.33410732 145.31564584 C16.3350265 157.06734932 16.33914366 168.81904752 16.34550858 180.57074928 C16.34730367 183.95379902 16.3490833 187.33684877 16.35085833 190.71989852 C16.35152148 191.98146574 16.35152148 191.98146574 16.35219802 193.26851917 C16.36450625 216.92533077 16.37239916 240.58214055 16.37151146 264.2389555 C16.3714803 265.13084713 16.37144914 266.02273876 16.37141704 266.9416574 C16.37125083 271.46210304 16.37105275 275.98254868 16.37084763 280.50299432 C16.37078779 281.84965123 16.37078779 281.84965123 16.37072675 283.22351333 C16.37064587 285.03902591 16.37056228 286.85453849 16.37047596 288.67005107 C16.36925056 316.91408784 16.3842618 345.15807658 16.41162109 373.40209961 C16.44234912 405.13684076 16.45955315 436.87155036 16.45769465 468.60630733 C16.45754539 471.99092885 16.45744798 475.37555037 16.45738602 478.76017189 C16.45735105 480.01023347 16.45735105 480.01023347 16.45731538 481.28554882 C16.45725387 494.69075352 16.47002004 508.0959165 16.48725055 521.50110879 C16.50421286 534.97647179 16.50617618 548.4517738 16.4930319 561.92714157 C16.48564669 569.92960862 16.48928782 577.93189029 16.50891658 585.93433766 C16.52234316 591.91418402 16.51479412 597.89381241 16.49917014 603.87366138 C16.49609431 606.28952032 16.49975445 608.70539938 16.51089029 611.12123462 C16.58998167 629.4989643 15.34540488 644.85993302 2.5 659.1875 C-7.29196634 668.48892467 -20.09075802 672.31560434 -33.2607069 672.25447559 C-34.28496636 672.25768207 -35.30922582 672.26088855 -36.36452344 672.26419219 C-39.80680829 672.272513 -43.24892009 672.26656051 -46.69120789 672.26069641 C-49.18007755 672.26371615 -51.66894628 672.26760473 -54.15781337 672.27228898 C-59.57445458 672.28044593 -64.99104295 672.28236311 -70.40768814 672.27878571 C-78.46265907 672.27347988 -86.51759338 672.27957286 -94.57256032 672.28786864 C-109.79633618 672.30311624 -125.02009542 672.30481287 -140.24387731 672.30234561 C-152.00085711 672.30051336 -163.75783145 672.30227114 -175.51481056 672.30657005 C-177.20360358 672.30717245 -178.89239659 672.30777365 -180.58118961 672.30837366 C-183.12602513 672.30928091 -185.67086066 672.31018957 -188.21569619 672.31110601 C-211.88000981 672.31953694 -235.54432137 672.32387033 -259.20863628 672.31969929 C-260.10091915 672.31954291 -260.99320201 672.31938654 -261.91252375 672.31922542 C-266.43500818 672.31841963 -270.95749261 672.31757386 -275.47997703 672.31671212 C-276.37816185 672.31654103 -277.27634666 672.31636994 -278.20174919 672.31619367 C-280.01809837 672.31584702 -281.83444755 672.31549849 -283.65079673 672.31514808 C-311.9080793 672.30979184 -340.16533067 672.31771796 -368.42260742 672.33618164 C-400.16831751 672.3569004 -431.91400826 672.36762449 -463.65972549 672.36360615 C-467.04518719 672.36321081 -470.4306489 672.36284926 -473.81611061 672.36250877 C-474.64969892 672.36241804 -475.48328723 672.36232731 -476.3421358 672.36223383 C-488.92371825 672.36106806 -501.50528118 672.36771469 -514.08685875 672.37832069 C-528.39829654 672.39037262 -542.70969132 672.39193184 -557.02112975 672.37953053 C-565.02821418 672.37290256 -573.03519579 672.37453149 -581.042272 672.38811904 C-587.02381452 672.39733805 -593.0052321 672.39084446 -598.98677299 672.37827124 C-601.40466158 672.37561574 -603.82256217 672.37801751 -606.24043902 672.38600711 C-624.97265016 672.44360558 -640.78817831 671.89600343 -655 658 C-660.32898862 651.5583654 -663.62500962 644.99324719 -666 637 C-666.29003906 636.06414062 -666.29003906 636.06414062 -666.5859375 635.109375 C-672.84704176 603.2131835 -661.22504096 559.28192865 -654 528 C-653.65799561 526.51209961 -653.65799561 526.51209961 -653.30908203 524.99414062 C-651.60742975 517.64561888 -649.82031677 510.31992671 -648 503 C-647.72929688 501.90252441 -647.45859375 500.80504883 -647.1796875 499.67431641 C-627.73168215 421.1893462 -592.70452749 345.9758131 -546 280 C-545.50177734 279.29456055 -545.00355469 278.58912109 -544.49023438 277.86230469 C-533.77369804 262.73503951 -522.58498667 247.98964393 -510.49609375 233.9296875 C-508.19004939 231.22306267 -505.96551747 228.4682426 -503.75 225.6875 C-498.65972902 219.42536808 -493.09871162 213.62286502 -487.55078125 207.76953125 C-484.86948376 204.93752852 -482.25697292 202.05936848 -479.6875 199.125 C-475.27671673 194.18391263 -470.61178339 189.50237536 -465.9375 184.8125 C-465.18106201 184.05146973 -464.42462402 183.29043945 -463.64526367 182.50634766 C-459.52946629 178.40175033 -455.3269124 174.47010131 -450.92260742 170.67749023 C-447.7591168 167.91731956 -444.73443495 165.01233745 -441.6875 162.125 C-436.59682493 157.34235541 -431.43457221 152.7426924 -425.97265625 148.3828125 C-423.70756445 146.5671673 -421.47099443 144.73100777 -419.24609375 142.8671875 C-395.56702722 123.06318498 -370.37415545 105.04277676 -344 89 C-342.72721191 88.2255957 -342.72721191 88.2255957 -341.42871094 87.43554688 C-297.06666672 60.58011297 -249.86704323 37.2144782 -200.25976562 21.70898438 C-197.37221713 20.80303787 -194.49147435 19.8762586 -191.609375 18.953125 C-146.0256822 4.46327201 -99.52770325 -5.13062281 -51.9375 -9.875 C-50.73915527 -9.99520508 -49.54081055 -10.11541016 -48.30615234 -10.23925781 C-30.17128854 -11.88950743 -14.60159984 -12.12062004 0 0 Z " fill="#FEFEFE" transform="translate(1705,1052)"/>
<path d="M0 0 C1.04736328 -0.02223633 2.09472656 -0.04447266 3.17382812 -0.06738281 C15.5724382 -0.03154868 25.54862598 4.68105319 34.75 12.8125 C47.9821497 27.83277803 48.79292236 40.54208881 48.69068909 59.95776367 C48.69573691 62.47570138 48.70296755 64.9936355 48.71218723 67.51156139 C48.72715751 72.97631253 48.72666662 78.4407212 48.71236038 83.90546799 C48.69114482 92.03180032 48.69864821 100.15793228 48.7117356 108.2842727 C48.7341694 122.79988086 48.72821001 137.31537244 48.7102995 151.83098069 C48.694723 164.53392731 48.68888167 177.23683308 48.6926403 189.93978882 C48.69299551 191.20444656 48.69299551 191.20444656 48.69335788 192.49465295 C48.69433283 195.91722016 48.69535365 199.33978736 48.69644299 202.76235453 C48.70652267 234.85888701 48.68827075 266.95534775 48.65672263 299.05186336 C48.62886264 327.55836397 48.62389878 356.06477929 48.63891602 384.57128906 C48.64273855 391.87129207 48.64653338 399.17129508 48.6500864 406.47129822 C48.65052422 407.37005704 48.65096203 408.26881585 48.65141311 409.19480979 C48.66265659 433.02533577 48.6553013 456.85585549 48.64220566 480.68637943 C48.64081711 483.2510353 48.6394364 485.81569117 48.63806724 488.38034705 C48.63715785 490.08161966 48.63623518 491.78289226 48.63529913 493.48416486 C48.62850745 506.17812159 48.63115993 518.87205367 48.63824654 531.56600952 C48.6462176 546.00177939 48.63963042 560.43746343 48.6140715 574.87321448 C48.60016199 582.94921954 48.59715052 591.02505176 48.6100062 599.10105955 C48.61835953 605.13372591 48.60576087 611.16615816 48.58503198 617.19880259 C48.57987186 619.63739825 48.58143595 622.07601942 48.59042663 624.51460397 C48.65272082 642.94504439 47.3163828 656.33701534 34.5625 670.5625 C24.40075712 680.33265356 12.33557332 682.59417818 -1.23502827 682.56892776 C-2.26326367 682.5709804 -3.29149906 682.57303303 -4.35089311 682.57514787 C-7.80663871 682.58081572 -11.26234444 682.57936088 -14.71809387 682.57794189 C-17.21663782 682.58052564 -19.71518135 682.58353882 -22.21372432 682.5869453 C-28.36690472 682.59417053 -34.52007262 682.59671786 -40.67325677 682.59727435 C-48.0439976 682.59818893 -55.41473043 682.60485921 -62.78546782 682.61162117 C-80.597679 682.62767245 -98.40988931 682.63358311 -116.22210643 682.63836992 C-124.64822268 682.64070637 -133.07433825 682.64430903 -141.50045396 682.6480653 C-170.344323 682.66089896 -199.18819166 682.67161915 -228.03206348 682.6750679 C-229.84227657 682.67528953 -231.65248965 682.67551132 -233.46270273 682.67573325 C-235.27727565 682.67595389 -237.09184857 682.67617438 -238.90642148 682.6763947 C-242.54674518 682.67683725 -246.18706888 682.67728437 -249.82739258 682.67773438 C-250.72997946 682.67784377 -251.63256633 682.67795316 -252.56250433 682.67806586 C-281.83793311 682.6816976 -311.11333715 682.69762303 -340.38875646 682.72092474 C-371.34161786 682.74551658 -402.29446511 682.7592404 -433.24733657 682.76043582 C-436.64455808 682.76060727 -440.04177958 682.7608227 -443.43900108 682.76107025 C-444.27549054 682.76112602 -445.11198 682.76118179 -445.97381762 682.76123925 C-459.43824253 682.76239013 -472.90264205 682.77341513 -486.36705838 682.78795731 C-499.89737196 682.80231812 -513.42765297 682.8055616 -526.95797209 682.79751733 C-534.99658467 682.79305942 -543.03509214 682.79692816 -551.07369093 682.81275584 C-557.07514428 682.82364715 -563.07647734 682.81887013 -569.07793518 682.80798396 C-571.50655679 682.80601948 -573.93518888 682.80913988 -576.36379573 682.81782833 C-579.66352924 682.82888695 -582.96272968 682.8214557 -586.26244831 682.8094368 C-587.20641058 682.81703199 -588.15037285 682.82462718 -589.12294003 682.83245254 C-601.90126487 682.73190039 -612.35093504 677.94530378 -621.6875 669.3125 C-632.85719894 657.58925845 -634.50313873 643.80305443 -634.25390625 628.41796875 C-631.61211395 552.04916946 -608.36076207 472.65817664 -576.9375 403.4375 C-576.15850342 401.71128418 -576.15850342 401.71128418 -575.36376953 399.95019531 C-553.10363675 350.72530769 -525.00286392 305.12058356 -491.9375 262.4375 C-491.41526855 261.75929199 -490.89303711 261.08108398 -490.35498047 260.38232422 C-480.75854553 247.92147441 -470.50971715 236.0785994 -459.9375 224.4375 C-458.54160785 222.87505254 -457.14577625 221.31255099 -455.75 219.75 C-434.51575802 196.16881549 -434.51575802 196.16881549 -422.9375 186.21875 C-420.85412922 184.3632479 -418.89468793 182.42526899 -416.9375 180.4375 C-413.8597003 177.3241188 -410.69895493 174.38740942 -407.37890625 171.53515625 C-405.43781852 169.86737368 -403.51099044 168.18663878 -401.58984375 166.49609375 C-393.86136254 159.71379072 -385.98988043 153.19609841 -377.84765625 146.91796875 C-375.7744806 145.31115163 -373.71477566 143.68803809 -371.65625 142.0625 C-348.0110996 123.43509291 -322.99619618 106.50609488 -296.9375 91.4375 C-296.03708984 90.91591309 -295.13667969 90.39432617 -294.20898438 89.85693359 C-240.02455719 58.58729968 -182.1769566 33.96551983 -121.26367188 19.24511719 C-117.71740031 18.38405829 -114.17909565 17.49410768 -110.640625 16.6015625 C-95.81768447 12.89655594 -81.02868504 9.80484411 -65.9375 7.4375 C-63.8410724 7.09680571 -61.74472044 6.75564575 -59.6484375 6.4140625 C-53.08695383 5.35859463 -46.51676806 4.37544747 -39.9375 3.4375 C-38.86064941 3.28361816 -37.78379883 3.12973633 -36.67431641 2.97119141 C-24.46148266 1.2731798 -12.33603963 0.14508825 0 0 Z " fill="#FEFEFE" transform="translate(897.9375,264.5625)"/>
<path d="M0 0 C2.25036066 0.39842451 4.50243843 0.78723358 6.75585938 1.16796875 C24.00677896 4.08557394 40.98409555 7.80666127 57.96386719 12.01757812 C58.87214264 12.24051544 59.78041809 12.46345276 60.71621704 12.69314575 C73.33695971 15.80605165 85.64730293 19.52623325 97.93173218 23.77394104 C101.02844673 24.83865961 104.13600947 25.86960019 107.24357605 26.90211487 C143.7878068 39.09010863 179.46224838 54.08679032 213.27636719 72.58007812 C214.72685574 73.36269004 216.17737666 74.14524197 217.62792969 74.92773438 C251.21700124 93.18404798 283.51358056 114.58207099 313.27636719 138.58007812 C314.21738281 139.33804688 315.15839844 140.09601563 316.12792969 140.87695312 C325.95550598 148.86362896 335.64249206 157.01111752 345.01074219 165.53320312 C347.09397845 167.41529934 349.20855652 169.25170125 351.33886719 171.08007812 C355.09149319 174.34191803 358.55950707 177.8464914 362.04980469 181.38476562 C364.10621794 183.41231693 366.21356702 185.32137374 368.40136719 187.20507812 C374.22531165 192.22174316 379.38312641 197.65922897 384.39355469 203.47851562 C386.44358993 205.76672923 388.5893181 207.92268394 390.77636719 210.08007812 C394.82529308 214.08824302 398.57061669 218.25670255 402.27636719 222.58007812 C403.25448994 223.69557767 404.23376089 224.81007097 405.21386719 225.92382812 C411.99789181 233.65327621 418.51663776 241.52623086 424.79589844 249.66992188 C426.40271556 251.74309753 428.0258291 253.80280246 429.65136719 255.86132812 C447.08052682 277.98656433 462.94856962 301.33018819 477.27636719 325.58007812 C478.13681641 327.03607422 478.13681641 327.03607422 479.01464844 328.52148438 C508.91832016 379.32624876 533.41849885 434.0421173 548.62011719 491.13867188 C549.27471093 493.57391646 549.96066385 495.99860573 550.65136719 498.42382812 C558.744698 527.43440988 564.4757931 557.39621883 567.88671875 587.30908203 C568.26993183 590.52605499 568.71156117 593.72920436 569.17480469 596.93554688 C575.39899085 640.67147629 575.39899085 640.67147629 562.94824219 657.52929688 C562.39652344 658.20605469 561.84480469 658.8828125 561.27636719 659.58007812 C560.72464844 660.26714844 560.17292969 660.95421875 559.60449219 661.66210938 C552.56326851 669.53082729 542.72244919 674.45226011 532.27636719 675.58007812 C528.84323196 675.71632088 525.41434669 675.71789824 521.97883892 675.71150589 C520.95060352 675.71355852 519.92236812 675.71561116 518.86297408 675.71772599 C515.40722847 675.72339385 511.95152275 675.721939 508.49577332 675.72052002 C505.99722937 675.72310376 503.49868583 675.72611695 501.00014287 675.72952342 C494.84696247 675.73674866 488.69379457 675.73929598 482.54061042 675.73985248 C475.16986958 675.74076706 467.79913676 675.74743733 460.42839937 675.7541993 C442.61618819 675.77025058 424.80397787 675.77616123 406.99176076 675.78094805 C398.56564451 675.78328449 390.13952894 675.78688716 381.71341322 675.79064343 C352.86954419 675.80347708 324.02567553 675.81419728 295.1818037 675.81764603 C293.37159062 675.81786766 291.56137754 675.81808944 289.75116445 675.81831138 C287.93659154 675.81853202 286.12201862 675.8187525 284.3074457 675.81897283 C280.66712201 675.81941538 277.02679831 675.81986249 273.38647461 675.8203125 C272.48388773 675.82042189 271.58130085 675.82053128 270.65136286 675.82064399 C241.37593407 675.82427573 212.10053003 675.84020115 182.82511073 675.86350286 C151.87224933 675.8880947 120.91940207 675.90181853 89.96653062 675.90301394 C86.56930911 675.9031854 83.17208761 675.90340083 79.7748661 675.90364838 C78.93837665 675.90370415 78.10188719 675.90375991 77.24004956 675.90381737 C63.77562466 675.90496826 50.31122514 675.91599325 36.84680881 675.93053543 C23.31649522 675.94489625 9.78621422 675.94813973 -3.7441049 675.94009545 C-11.78271748 675.93563755 -19.82122495 675.93950629 -27.85982374 675.95533396 C-33.8612771 675.96622528 -39.86261015 675.96144826 -45.86406799 675.95056209 C-48.2926896 675.9485976 -50.72132169 675.95171801 -53.14992855 675.96040645 C-56.44966206 675.97146507 -59.74886249 675.96403383 -63.04858112 675.95201492 C-63.99254339 675.95961012 -64.93650566 675.96720531 -65.90907285 675.97503066 C-78.68739768 675.87447851 -89.13706785 671.08788191 -98.47363281 662.45507812 C-107.70994419 652.7773855 -111.03567142 641.22837957 -110.98369503 628.225667 C-110.9875007 627.1912773 -110.99130637 626.1568876 -110.99522737 625.09115276 C-111.00555891 621.61441363 -111.00163403 618.13783729 -110.99778748 614.66108704 C-111.00223902 612.14746812 -111.00755278 609.6338506 -111.0136562 607.12023515 C-111.02488902 601.64952312 -111.0298692 596.17886007 -111.02933502 590.70813751 C-111.02854155 582.57275481 -111.03909408 574.43741419 -111.05175059 566.30204274 C-111.07648709 550.07951148 -111.08527293 533.85699045 -111.09028708 517.63444292 C-111.09054825 516.79436524 -111.09080943 515.95428756 -111.09107852 515.08875299 C-111.09133879 514.2469869 -111.09159907 513.40522082 -111.09186723 512.53794668 C-111.09494965 503.2093547 -111.10145443 493.88076555 -111.10807991 484.55217552 C-111.1277272 456.37629618 -111.144132 428.2004199 -111.14695644 400.02453327 C-111.1470505 399.12335325 -111.14714457 398.22217322 -111.14724148 397.29368471 C-111.14761996 393.64159905 -111.14798395 389.9895134 -111.14834446 386.33742774 C-111.14861618 383.58863998 -111.14889285 380.83985221 -111.14916992 378.09106445 C-111.14925794 377.18275972 -111.14934597 376.27445499 -111.14943666 375.33862588 C-111.15234208 346.79936921 -111.17443808 318.26018027 -111.21069336 289.72094727 C-111.25142296 257.65880868 -111.27511503 225.59671624 -111.27541596 193.53455037 C-111.27551278 190.11538676 -111.2756795 186.69622316 -111.27589607 183.27705956 C-111.27594019 182.43517234 -111.2759843 181.59328513 -111.27602975 180.72588618 C-111.27714942 167.18001236 -111.29455552 153.63420641 -111.31771539 140.08835444 C-111.34056242 126.47285299 -111.34478024 112.85744321 -111.33016609 99.24192963 C-111.32201725 91.15478999 -111.32769614 83.06793919 -111.35334694 74.9808346 C-111.37096101 68.93968547 -111.36239392 62.89887014 -111.34370185 56.85771193 C-111.34020091 54.41559421 -111.34514228 51.97344663 -111.35940628 49.53136805 C-111.48714148 26.15468547 -111.48714148 26.15468547 -105.72363281 16.58007812 C-105.10101562 15.48050781 -104.47839844 14.3809375 -103.83691406 13.24804688 C-99.2264766 6.89744429 -94.5574895 2.45494532 -87.72363281 -1.41992188 C-86.89992188 -1.92652344 -86.07621094 -2.433125 -85.22753906 -2.95507812 C-62.74505781 -14.6694624 -23.86092016 -4.24161294 0 0 Z " fill="#FEFEFE" transform="translate(1164.7236328125,275.419921875)"/>
<path d="M0 0 C1.02930446 -0.00205263 2.05860891 -0.00410527 3.11910442 -0.0062201 C6.5905299 -0.01190369 10.06191589 -0.01043117 13.53334522 -0.00901413 C16.03841266 -0.01159698 18.54347968 -0.01460992 21.04854614 -0.01801753 C27.22562528 -0.02525165 33.40269196 -0.02779061 39.57977485 -0.02834659 C46.97750834 -0.02926018 54.37523384 -0.03592758 61.77296389 -0.04269341 C79.65314082 -0.05875592 97.5333169 -0.06465688 115.41349975 -0.06944216 C123.87103516 -0.07177775 132.3285699 -0.07538035 140.78610479 -0.07913754 C169.7340478 -0.09197297 198.68199043 -0.1026924 227.62993622 -0.10614014 C229.44722553 -0.10636177 231.26451484 -0.10658355 233.08180415 -0.10680549 C234.90349433 -0.10702613 236.72518452 -0.10724661 238.5468747 -0.10746694 C242.2015293 -0.10790949 245.85618391 -0.10835661 249.51083851 -0.10880661 C250.87005201 -0.1089707 250.87005201 -0.1089707 252.25672437 -0.1091381 C281.64252284 -0.11276923 311.02829664 -0.12869145 340.41408566 -0.15199697 C371.47864601 -0.1765889 402.54319226 -0.19031267 433.60776263 -0.19150805 C437.01737265 -0.19167951 440.42698266 -0.19189494 443.83659267 -0.19214249 C445.09591581 -0.19222614 445.09591581 -0.19222614 446.38067983 -0.19231148 C459.8954256 -0.19346245 473.41014607 -0.20448832 486.9248833 -0.21902954 C500.50697049 -0.23339062 514.08902523 -0.23663372 527.67111792 -0.22858956 C535.7408251 -0.22413155 543.81042757 -0.22800077 551.880121 -0.24382807 C557.90480502 -0.25471916 563.92936919 -0.24994252 569.95405767 -0.2390562 C572.39216026 -0.23709165 574.83027328 -0.24021239 577.26836117 -0.24890056 C580.58090928 -0.25995861 583.89292632 -0.25252833 587.20545959 -0.24050903 C588.15320225 -0.24810423 589.1009449 -0.25569942 590.07740703 -0.26352477 C602.81324956 -0.16368628 613.23998164 4.59195345 622.60483265 13.13142776 C628.96547507 19.75191881 635.03705138 30.08492833 635.04613382 39.40155309 C635.04940601 40.27960476 635.0526782 41.15765644 635.05604956 42.06231573 C635.05456593 43.02965524 635.05308231 43.99699475 635.05155373 44.99364758 C635.05390596 46.0234219 635.05625819 47.05319622 635.0586817 48.11417583 C635.06539144 51.59926121 635.06491288 55.08430947 635.06450367 58.56940079 C635.06780108 61.07956644 635.07152638 63.58973157 635.07564515 66.09989601 C635.08463249 72.29741291 635.08889506 78.49491863 635.09116411 84.69244116 C635.09412336 92.11312337 635.1028192 99.53379607 635.11157839 106.95447329 C635.13243649 124.89369343 635.1428952 142.83291523 635.151708 160.77214467 C635.15591304 169.25777319 635.16113526 177.74340099 635.16639253 186.22902891 C635.18428495 215.27216667 635.1992808 244.31530463 635.20671272 273.35844707 C635.20718748 275.1823044 635.20766337 277.00616173 635.20814038 278.83001906 C635.20849495 280.18673662 635.20849495 280.18673662 635.20885668 281.57086262 C635.21005789 286.15346963 635.21127333 290.73607663 635.21249866 295.31868362 C635.21273881 296.2281199 635.21297896 297.13755617 635.21322639 298.07455113 C635.22111828 327.55674765 635.2445467 357.03890392 635.27705461 386.52108287 C635.31135467 417.68548143 635.33106409 448.84985644 635.33435696 480.01427418 C635.33477451 483.43574688 635.33525407 486.85721956 635.33578014 490.27869225 C635.33590334 491.12116546 635.33602653 491.96363868 635.33615345 492.83164138 C635.33848541 506.38888426 635.35414529 519.94608041 635.37462199 533.50330663 C635.39488099 547.13272686 635.40035696 560.76209098 635.39085136 574.39152347 C635.38563647 582.48749305 635.39151318 590.58327578 635.41338603 598.67921846 C635.42848978 604.72709365 635.42264984 610.77475898 635.40871551 616.82264484 C635.40633111 619.26757398 635.41070588 621.71252107 635.42254416 624.15742271 C635.50246354 641.75354029 634.67527835 655.08954184 622.54233265 668.81892776 C607.36751491 682.18721958 592.57773343 683.3609035 572.91733265 682.13142776 C565.87679654 681.54245933 558.86483995 680.69229477 551.85483265 679.81892776 C550.99259083 679.7122377 550.13034901 679.60554764 549.24197865 679.49562454 C537.73154339 678.05322851 526.32298468 676.24110589 514.91733265 674.13142776 C513.31812977 673.84586014 513.31812977 673.84586014 511.68661976 673.55452347 C442.51824592 661.18976999 374.6014404 637.89860156 312.91733265 604.13142776 C311.88463245 603.57052444 310.85193226 603.00962112 309.78793812 602.43172073 C295.17752763 594.48489205 280.81542482 586.27906644 266.91733265 577.13142776 C265.62206654 576.28233841 265.62206654 576.28233841 264.30063343 575.41609573 C242.02810237 560.7873919 220.30778193 545.31721475 199.91733265 528.13142776 C198.85360516 527.24201563 197.78979835 526.35269835 196.7259264 525.46345901 C190.82633427 520.51638285 185.01267231 515.49179328 179.31577015 510.31111526 C177.68359625 508.82780413 176.04258347 507.35417385 174.39389515 505.88924026 C169.53177132 501.56569015 164.8448593 497.13966672 160.31577015 492.46736526 C158.29170129 490.49604087 156.22774492 488.66124207 154.0853014 486.82283401 C150.073225 483.33812297 146.44707803 479.60457894 142.85483265 475.69392776 C141.54908412 474.28485018 140.24308713 472.87600281 138.9368639 471.46736526 C138.27509144 470.75161331 137.61331898 470.03586136 136.93149281 469.29841995 C134.94367011 467.15976368 132.93982636 465.03756388 130.9290514 462.92049026 C124.73417193 456.39110739 118.67505313 449.85139811 113.06577015 442.80330276 C111.14087793 440.4094368 109.15707825 438.08008177 107.14487171 435.75960159 C99.87191721 427.34056599 93.26863409 418.4361502 86.66293812 409.4898262 C85.14435416 407.43814494 83.61448642 405.39588183 82.0774889 403.35799026 C69.32414609 386.35590545 57.69126662 368.44593545 46.91733265 350.13142776 C46.44376331 349.32705276 45.97019398 348.52267776 45.48227406 347.69392776 C37.50442505 334.07615718 30.02497217 320.22201138 22.91733265 306.13142776 C22.02908802 304.37113235 22.02908802 304.37113235 21.12289906 302.57527542 C7.72463816 275.90958314 -3.18761607 248.59279103 -12.95522594 220.38338089 C-13.6786901 218.29664581 -14.40770087 216.21182074 -15.14370251 214.12947464 C-31.32289709 168.35419241 -63.093573 76.6468459 -45.11391735 29.28377151 C-38.39529843 15.26119945 -29.39476353 6.93923491 -15.08266735 1.13142776 C-10.1275192 -0.24085669 -5.09911079 -0.00940408 0 0 Z " fill="#FEFEFE" transform="translate(311.08266735076904,1052.8685722351074)"/>
</svg>
